<svg xmlns="http://www.w3.org/2000/svg" width="511.998" height="504.246" viewBox="0 0 511.998 504.246">
    <defs>
        <style>
            .a {
                fill: #a5bcea;
            }
        </style>
    </defs>
    <g transform="translate(-0.001 -0.5)">
        <path class="a"
            d="M379.441,310.25l67.48-66.773c25.2-25.2,73.676,6.594,47.488,37.4L412.7,377.012a57.319,57.319,0,0,1-10.93,9.918c-13.172,8.418-28.859,11.223-44.316,11.223H236.195a227.529,227.529,0,0,0-26.246,1.52l-34.875,3.918-72.336-70.2s41.035-77.492,121.531-55.219a173.331,173.331,0,0,0,46.254,6.152h79.691c37.516,0,37.813,59.609-.312,59.609H280.527" />
        <path class="a"
            d="M127.559,494.934l68.816-70.6a.05.05,0,0,0,0-.07L79.605,310.946a.053.053,0,0,0-.07,0L10.07,383.063Zm0,0" />
        <path class="a"
            d="M92.645,100.32a42.988,42.988,0,0,0-38.879,42.789v45.766a14.313,14.313,0,0,0,14.312,14.313h98.141a14.313,14.313,0,0,0,14.313-14.312V143.109a42.983,42.983,0,0,0-38.93-42.793" />
        <path class="a" d="M165.172,58.859a48.023,48.023,0,1,1-48.023-48.027,48.022,48.022,0,0,1,48.023,48.027Zm0,0" />
        <path class="a"
            d="M219.414,100.32a42.991,42.991,0,0,0-38.883,42.789v45.766a14.316,14.316,0,0,0,14.316,14.313h98.141A14.313,14.313,0,0,0,307.3,188.875V143.109a42.986,42.986,0,0,0-38.93-42.793" />
        <path class="a" d="M291.941,58.859a48.025,48.025,0,1,1-48.023-48.027,48.022,48.022,0,0,1,48.023,48.027Zm0,0" />
        <path class="a"
            d="M346.184,100.32A42.988,42.988,0,0,0,307.3,143.109v45.766a14.315,14.315,0,0,0,14.313,14.313h98.141a14.316,14.316,0,0,0,14.316-14.312V143.109a42.987,42.987,0,0,0-38.934-42.793" />
        <path class="a" d="M418.711,58.859a48.025,48.025,0,1,1-48.027-48.027,48.026,48.026,0,0,1,48.027,48.027Zm0,0" />
        </g>
</svg>