<svg xmlns="http://www.w3.org/2000/svg" width="346.977" height="275.96" viewBox="0 0 346.977 275.96"><path d="M298.421,112.48l-62.483,62.482-.011.009q-.532.531-1.111,1c-.214.175-.439.327-.66.488-.169.123-.332.256-.507.372-.29.194-.591.365-.891.536-.12.068-.235.146-.356.21-.286.153-.58.284-.874.418-.151.069-.3.146-.452.21-.253.1-.513.19-.77.281-.207.073-.41.153-.621.217s-.416.108-.625.161c-.268.069-.534.143-.807.2-.16.032-.321.049-.481.075-.322.053-.644.108-.971.14-.13.013-.261.012-.391.022-.352.025-.7.051-1.061.051-.193,0-.386-.019-.579-.026-.29-.011-.577-.013-.869-.042-.495-.047-.989-.121-1.479-.217l-.016,0c-.067-.014-.131-.036-.2-.05-.415-.088-.828-.188-1.236-.312-.158-.048-.31-.11-.466-.163-.308-.105-.616-.208-.919-.333-.208-.086-.4-.188-.607-.282-.239-.112-.48-.218-.714-.343s-.474-.276-.708-.418c-.183-.111-.368-.214-.547-.333-.281-.188-.548-.393-.814-.6-.122-.094-.248-.179-.368-.277-.341-.28-.665-.577-.977-.884-.04-.039-.084-.071-.123-.111l-.02-.02c-.016-.015-.03-.03-.045-.045l-62.421-62.42a15,15,0,1,1,21.212-21.213L212.29,130.1A109.969,109.969,0,0,0,61.823,37.908q-1.542.618-3.064,1.284A110.254,110.254,0,0,0,25.524,61.685,15,15,0,1,1,4.477,40.308,140.024,140.024,0,0,1,102.733,0h0a140.22,140.22,0,0,1,27.34,2.7C191.964,15.007,236.221,66.61,242.08,126.4l35.131-35.13a15,15,0,1,1,21.21,21.214Z" transform="translate(346.977 167.441) rotate(159)" fill="#AEE696" /></svg>