<svg xmlns="http://www.w3.org/2000/svg" width="431.498" height="477.22" viewBox="0 0 431.498 477.22"><defs><style>.a{fill:#a5bcea;}</style></defs><g transform="translate(-711 -293)"><g transform="translate(688.14 293)"><path class="a" d="M156.361,72.739a36.686,36.686,0,1,0-29.253-42.85A36.67,36.67,0,0,0,156.361,72.739Z"/><path class="a" d="M453.663,453.328l-20.26-72.69,1.829-60.83a64.765,64.765,0,0,0-1.1-13.981l-21.693-114.86a31.587,31.587,0,0,0-36.906-25.185l-13.247,2.509a31.477,31.477,0,0,0-20.152,13.131c4.738-.725,10.724-1.746,15.148-2.1l-57.149,19.989-65.6-9.367A15.474,15.474,0,0,0,217.549,201.1c-15.585-14.167-4.208-3.819-41.846-38.028l-27.586-51.431c2.307,2.221,11.316,13.419,13.5,16.084l.981-5.213a31.583,31.583,0,0,0-25.186-36.9L124.162,83.1A31.6,31.6,0,0,0,87.256,108.29L65.946,221.112a51.418,51.418,0,0,0-.2,17.971l9.212,55.48L46.58,369a18.832,18.832,0,0,0,35.192,13.418l30.173-79.156a19.079,19.079,0,0,0,1-9.709l-3.74-23.13,26.09,30.913-.9,74.146a18.825,18.825,0,0,0,18.594,19.054h.232a18.823,18.823,0,0,0,18.827-18.6l.981-81.152a18.87,18.87,0,0,0-4.441-12.367l-29.564-35.035,9.459-50.113-4.1-3.725c-2.744-2.494-4.707-3.9-5.828-7.474-1.247-4.052-17.176-55.257-17.971-59.4l28.756,53.621A15.517,15.517,0,0,0,152.4,184.2a3.463,3.463,0,0,0,.2.281L200.172,227.7a15.706,15.706,0,0,0,22.162-1.06,15.318,15.318,0,0,0,3.46-7.162,15.292,15.292,0,0,0,4.317,1.527l69.383,9.913a15.8,15.8,0,0,0,7.389-.717l60.875-21.3c-3.054,2.081-23.674,13.8-26.992,15.71l16.27,86.116L322.765,325.1a18.8,18.8,0,0,0-11.222,13.878l-13.277,70.483a18.824,18.824,0,1,0,37,6.968l11.41-60.525,50.013-20.978-1,47.7a19.481,19.481,0,0,0,.687,5.455l21.009,75.362a18.85,18.85,0,0,0,18.125,13.776,18.566,18.566,0,0,0,5.065-.7A18.828,18.828,0,0,0,453.663,453.328Z"/><path class="a" d="M364.858,150.564a36.687,36.687,0,1,0-42.842-29.239A36.671,36.671,0,0,0,364.858,150.564Z"/><path class="a" d="M365.437,437.991H273.874V407.935a9.18,9.18,0,0,0-9.18-9.172H22.86v78.455H374.616V447.162A9.179,9.179,0,0,0,365.437,437.991Z"/></g><rect class="a" width="44" height="79" transform="translate(772.619 441.776) rotate(-45)"/><rect class="a" width="26" height="17" transform="matrix(0.643, 0.766, -0.766, 0.643, 834.155, 399.078)"/><rect class="a" width="52" height="19" transform="translate(1026.474 506.572) rotate(-14)"/><ellipse class="a" cx="18.5" cy="16" rx="18.5" ry="16" transform="translate(1026 466)"/><ellipse class="a" cx="10.5" cy="16.5" rx="10.5" ry="16.5" transform="translate(830 407)"/></g></svg>