<svg id="Layer_1" height="512" viewBox="0 0 512 512" width="512" xmlns="http://www.w3.org/2000/svg" data-name="Layer 1"><path d="m408 337.68c-.27-.69-.5-1.37-.8-2.04a60.634 60.634 0 0 0 -35.9-32.4l-9.129-3.16a324.3 324.3 0 0 0 -42.824-11.59q-12.135-2.415-24.387-3.89l-77.447.4c-8.32 1-16.61 2.07-24.86 3.71a323.94 323.94 0 0 0 -42.833 11.49l-9.14 3.1c-15.9 5.49-29.15 17.042-35.93 32.372-.3.67-.484 1.335-.754 2.025a60.165 60.165 0 0 0 -4 22.346v134.957h312.004v-134.96a60.237 60.237 0 0 0 -4-22.36z" fill="#546ac7"/><path d="m217.51 285c-8.32 1-16.61 2.07-24.86 3.71a323.94 323.94 0 0 0 -42.83 11.49l-9.14 3.1c-15.9 5.49-29.15 17.042-35.93 32.372-.3.67-.484 1.335-.754 2.025a60.165 60.165 0 0 0 -4 22.346v134.957h30v-134.96a60.165 60.165 0 0 1 4-22.346c.27-.69.454-1.355.754-2.025 6.78-15.33 20.03-26.882 35.93-32.372l9.14-3.1a323.94 323.94 0 0 1 42.83-11.485z" fill="#4a61a8"/><path d="m256.03 17c50.99 0 91.32 42.98 87.81 93.6l-1.93 27.84a6.184 6.184 0 0 1 -.07.62 8.406 8.406 0 0 1 -2.62 5l-13.98 6.51-4.04-16.57a98.074 98.074 0 0 0 -40.42-58.03 78.772 78.772 0 0 1 -72.46 32.44l-6.63-.71a3.4 3.4 0 0 0 -3.76 3.11l-2.93 36.45c-.1 1.2-21.17-3.72-21.17-3.72a6.947 6.947 0 0 1 -3.72-5.61l-1.89-27.33c-.14-2.06-.21-4.1-.21-6.14 0-47.9 39.09-87.46 88.02-87.46z" fill="#9e6c52"/><path d="m294.96 284.6-.46-.02a33.085 33.085 0 0 1 -10.16 22.25l-28.34 27.12 54.11 24.55 9.08-69.17.16-.84q-12.135-2.415-24.39-3.89z" fill="#bfc7e9"/><path d="m283.46 346.41-.24.54-8.45 28.18h-.03l-35.42-.56h-.03l-7.24-29.75 23.95-10.87z" fill="#eb6141"/><path d="m281.94 494.65v.35h-41.6l39.48-35.53z" fill="#eb6141"/><path d="m277.56 422.01 2.26 37.46-39.48 35.53h-12.08v-.68l2.82-30.48z" fill="#f3e08c"/><path d="m275.31 384.55 2.25 37.46-46.48 41.83 3.97-43.07h.01z" fill="#eb6141"/><path d="m274.74 375.13.57 9.42-40.25 36.22h-.01l4.27-46.2z" fill="#f3e08c"/><path d="m227.73 307.05a33.367 33.367 0 0 1 -10.14-22.05h-.08c-8.32 1-16.61 2.07-24.86 3.71l.16.735 9.08 69.113 54.11-24.464z" fill="#bfc7e9"/><path d="m218 250.47v32.54c0 .51-.209 1.02-.19 1.53a32.922 32.922 0 0 0 10.031 22.28l28.214 27.13 28.312-27.12a33.326 33.326 0 0 0 10.377-22.25c.03-.53.256-1.06.256-1.59v-32.54z" fill="#e2c3b3"/><path d="m217.56 250.47a83.443 83.443 0 0 1 -20.36-14.88 82.309 82.309 0 0 1 -24.37-58.54v-.12a21.121 21.121 0 0 1 -17.51-20.76 21.379 21.379 0 0 1 .6-5.03 15.932 15.932 0 0 1 14.27-12.08l.1-.02a6.828 6.828 0 0 0 3.54 4.5s21.07 4.92 21.17 3.72l2.93-36.45a3.4 3.4 0 0 1 3.76-3.11l6.63.71a78.772 78.772 0 0 0 72.46-32.44 98.074 98.074 0 0 1 40.42 58.03l4.04 16.57 13.98-6.51a8.406 8.406 0 0 0 2.62-5h.03a15.946 15.946 0 0 1 14.21 12.08 21.379 21.379 0 0 1 .6 5.03 20.892 20.892 0 0 1 -5.01 13.61 21.207 21.207 0 0 1 -12.45 7.14v.13a82.342 82.342 0 0 1 -24.36 58.54 83.549 83.549 0 0 1 -97.3 14.88z" fill="#eed0be"/><path d="m153 407.117a6 6 0 0 0 -6 6v81.883h12v-81.883a6 6 0 0 0 -6-6z" fill="#445aa0"/><path d="m360 407.117a6 6 0 0 0 -6 6v81.883h12v-81.883a6 6 0 0 0 -6-6z" fill="#445aa0"/><path d="m122.352 468.728a6 6 0 0 1 -6-6v-66.616a6 6 0 0 1 12 0v66.616a6 6 0 0 1 -6 6z" fill="#f4f8fc"/><path d="m122.352 384.353a6 6 0 0 1 -6-6v-3.2a6 6 0 0 1 12 0v3.2a6 6 0 0 1 -6 6z" fill="#f4f8fc"/><path d="m355.835 150.293a15.921 15.921 0 0 0 -1.5-3.45l.909 3.727z" fill="#ffccb3"/><path d="m247.56 250.47a83 83 0 0 1 -43.7-61.4 206.3 206.3 0 0 0 -6.83-31.34l-3.13-10.161c-6.145-1.155-20.043-4.012-20.043-4.012a6.855 6.855 0 0 1 -3.551-4.508l-.106.015a15.932 15.932 0 0 0 -14.272 12.078 21.444 21.444 0 0 0 17.072 25.788v.12a82.236 82.236 0 0 0 24.285 58.54 83.467 83.467 0 0 0 73.752 22.9 82.849 82.849 0 0 1 -23.477-8.02z" fill="#d3b6a7"/></svg>