<svg xmlns="http://www.w3.org/2000/svg" width="350.243" height="290.526" viewBox="0 0 350.243 290.526">
    <path
        d="M298.423,153a15,15,0,0,0-21.213,0l-35.137,35.136c-5.871-59.78-50.15-111.4-112-123.706a139.956,139.956,0,0,0-125.6,37.612,15,15,0,1,0,21.047,21.377,109.979,109.979,0,0,1,186.765,68.413l-38.835-38.835a15,15,0,0,0-21.213,21.214l62.485,62.485a15,15,0,0,0,21.213,0l62.483-62.482A15,15,0,0,0,298.423,153Z"
        transform="translate(-26.088 72.029) rotate(-25)" fill="#AEE696" />
</svg>