<svg xmlns="http://www.w3.org/2000/svg" width="512.013" height="512.013" viewBox="0 0 512.013 512.013">
    <defs>
        <style>
            .a {
                fill: #a2c1ff;
            }
        </style>
    </defs>
    <g transform="translate(0 0)">
        <path class="a"
            d="M369.871,280.394l-34.14,34.141h0L99.9,78.707l18.124-18.124L42.877.014,0,42.891l60.569,75.15L78.694,99.917,314.521,335.744,280.38,369.885l48.69,48.689,89.49-89.49Z" />
        <path class="a" d="M439.773,350.3l-89.49,89.49,53.692,53.692a63.279,63.279,0,0,0,89.491-89.49Z" />
        <path class="a"
            d="M259.136,322.785l-69.9-69.9L138.06,304.054a106.377,106.377,0,1,0,69.9,69.9ZM130.73,429.973a34.429,34.429,0,1,1,0-48.69A34.421,34.421,0,0,1,130.73,429.973Z" />
        <path class="a"
            d="M505.04,64.163l-8.36-21.35-53.67,53.67-21.67-5.81L415.53,69l53.67-53.66-21.35-8.37a101.078,101.078,0,0,0-134.2,121.49l-60.777,60.784,69.9,69.9,60.777-60.784a101.078,101.078,0,0,0,121.49-134.2Z" />
    </g>
</svg>